<svg width="32" height="32" viewBox="0 0 32 32" fill="none" xmlns="http://www.w3.org/2000/svg">
<circle cx="16" cy="16" r="16" fill="white"/>
<path d="M20.9805 20.627V23H11.1562V20.9883L15.7461 16.125C16.1758 15.6302 16.5176 15.194 16.7715 14.8164C17.0319 14.4388 17.2207 14.097 17.3379 13.791C17.4551 13.4785 17.5137 13.1921 17.5137 12.9316C17.5137 12.5085 17.4453 12.1504 17.3086 11.8574C17.1784 11.5645 16.9863 11.3398 16.7324 11.1836C16.4785 11.0273 16.1693 10.9492 15.8047 10.9492C15.4141 10.9492 15.0788 11.0501 14.7988 11.252C14.5189 11.4538 14.304 11.7337 14.1543 12.0918C14.0046 12.4434 13.9297 12.8438 13.9297 13.293H10.8633C10.8633 12.4271 11.0716 11.6393 11.4883 10.9297C11.9049 10.2135 12.4876 9.64388 13.2363 9.2207C13.985 8.79102 14.8607 8.57617 15.8633 8.57617C16.8919 8.57617 17.7546 8.73893 18.4512 9.06445C19.1478 9.38997 19.6751 9.85547 20.0332 10.4609C20.3913 11.0664 20.5703 11.7956 20.5703 12.6484C20.5703 13.1302 20.4922 13.5957 20.3359 14.0449C20.1862 14.4941 19.9681 14.9401 19.6816 15.3828C19.3952 15.8255 19.0501 16.278 18.6465 16.7402C18.2428 17.196 17.7871 17.6777 17.2793 18.1855L15.1309 20.627H20.9805Z" fill="url(#paint0_linear_2682_209)"/>
<defs>
<linearGradient id="paint0_linear_2682_209" x1="16" y1="9" x2="16" y2="42.1215" gradientUnits="userSpaceOnUse">
<stop stop-color="#424242"/>
<stop offset="0.53214" stop-color="#F9DB7A"/>
</linearGradient>
</defs>
</svg>
