<svg width="32" height="32" viewBox="0 0 32 32" fill="none" xmlns="http://www.w3.org/2000/svg">
<circle cx="16" cy="16" r="16" fill="white"/>
<path d="M14.0957 14.5918H15.6484C16.0911 14.5918 16.4557 14.5137 16.7422 14.3574C17.0352 14.2012 17.25 13.9798 17.3867 13.6934C17.5299 13.4069 17.6016 13.0716 17.6016 12.6875C17.6016 12.3555 17.5365 12.0592 17.4062 11.7988C17.276 11.5384 17.0775 11.3333 16.8105 11.1836C16.5501 11.0273 16.2116 10.9492 15.7949 10.9492C15.4954 10.9492 15.209 11.0111 14.9355 11.1348C14.6686 11.252 14.4505 11.4245 14.2812 11.6523C14.112 11.8737 14.0273 12.1406 14.0273 12.4531H10.9707C10.9707 11.6589 11.1855 10.972 11.6152 10.3926C12.0514 9.81315 12.6276 9.36719 13.3438 9.05469C14.0664 8.73568 14.8542 8.57617 15.707 8.57617C16.6901 8.57617 17.5527 8.73242 18.2949 9.04492C19.0436 9.35091 19.623 9.80664 20.0332 10.4121C20.4499 11.0111 20.6582 11.7533 20.6582 12.6387C20.6582 13.1009 20.5475 13.5469 20.3262 13.9766C20.1113 14.3997 19.8021 14.7773 19.3984 15.1094C19.0013 15.4349 18.526 15.6953 17.9727 15.8906C17.4258 16.0794 16.8171 16.1738 16.1465 16.1738H14.0957V14.5918ZM14.0957 16.8867V15.334H16.1465C16.8887 15.334 17.5527 15.4186 18.1387 15.5879C18.7246 15.7572 19.2227 16.0013 19.6328 16.3203C20.043 16.6393 20.3555 17.0267 20.5703 17.4824C20.7852 17.9382 20.8926 18.446 20.8926 19.0059C20.8926 19.6699 20.7624 20.2624 20.502 20.7832C20.2415 21.304 19.877 21.7435 19.4082 22.1016C18.9395 22.4596 18.3893 22.7331 17.7578 22.9219C17.1263 23.1042 16.4427 23.1953 15.707 23.1953C15.1146 23.1953 14.5254 23.1139 13.9395 22.9512C13.3535 22.7884 12.8229 22.541 12.3477 22.209C11.8724 21.8704 11.4915 21.444 11.2051 20.9297C10.9186 20.4089 10.7754 19.7904 10.7754 19.0742H13.832C13.832 19.4062 13.9167 19.7057 14.0859 19.9727C14.2617 20.2331 14.4993 20.4414 14.7988 20.5977C15.1048 20.7474 15.4368 20.8223 15.7949 20.8223C16.2246 20.8223 16.5892 20.7441 16.8887 20.5879C17.1947 20.4251 17.4258 20.2038 17.582 19.9238C17.7448 19.6439 17.8262 19.3216 17.8262 18.957C17.8262 18.4622 17.7383 18.0651 17.5625 17.7656C17.3932 17.4596 17.1458 17.2383 16.8203 17.1016C16.4948 16.9583 16.1042 16.8867 15.6484 16.8867H14.0957Z" fill="url(#paint0_linear_2682_212)"/>
<defs>
<linearGradient id="paint0_linear_2682_212" x1="16" y1="9" x2="16" y2="42.1215" gradientUnits="userSpaceOnUse">
<stop stop-color="#424242"/>
<stop offset="0.53214" stop-color="#F9DB7A"/>
</linearGradient>
</defs>
</svg>
