<!-- icon666.com - MILLIONS vector ICONS FREE --><svg version="1.1" id="Capa_1" xmlns="http://www.w3.org/2000/svg" xmlns:xlink="http://www.w3.org/1999/xlink" x="0px" y="0px" viewBox="0 0 494.79 494.79" style="enable-background:new 0 0 494.79 494.79;" xml:space="preserve"><path d="M451.699,132.877H308.884l76.396-20.472c3.624-0.972,6.454-3.802,7.424-7.425c0.971-3.624-0.065-7.489-2.717-10.143 l-91.76-91.763c-2.652-2.653-6.517-3.688-10.143-2.718c-3.624,0.972-6.454,3.802-7.424,7.425l-33.262,124.142L214.133,7.782 c-0.971-3.623-3.801-6.453-7.424-7.425c-3.622-0.968-7.49,0.065-10.142,2.718l-91.763,91.761c-2.653,2.652-3.689,6.519-2.718,10.143 c0.971,3.623,3.801,6.453,7.424,7.425l76.41,20.474H43.091c-5.799,0-10.5,4.701-10.5,10.5v96.338c0,5.799,4.701,10.5,10.5,10.5 h14.403v217.796c0,14.767,12.014,26.779,26.78,26.779h326.241c14.767,0,26.78-12.014,26.78-26.781V250.215h14.403 c5.799,0,10.5-4.701,10.5-10.5v-96.338C462.199,137.578,457.498,132.877,451.699,132.877z M199.45,229.215v-75.338h95.957v75.338 H199.45z M273.261,250.215V473.79h-51.664V250.215H273.261z M296.237,30.785l66.041,66.043l-90.213,24.174L296.237,30.785z M198.556,30.784l24.173,90.214l-90.216-24.173L198.556,30.784z M53.591,153.877H178.45v75.338H53.591V153.877z M78.495,468.011 V250.215h122.103V473.79H84.275C81.088,473.79,78.495,471.197,78.495,468.011z M416.296,468.009c0,3.188-2.593,5.781-5.78,5.781 H294.261V250.215h122.035V468.009z M441.199,229.215H316.407v-75.338h124.792V229.215z" fill="#000000" style="fill: rgb(23, 174, 255);"></path></svg>